<?xml version="1.0" standalone="no"?><!DOCTYPE svg PUBLIC "-//W3C//DTD SVG 1.1//EN" "http://www.w3.org/Graphics/SVG/1.1/DTD/svg11.dtd"><svg t="1672414313114" class="icon" viewBox="0 0 1024 1024" version="1.1" xmlns="http://www.w3.org/2000/svg" p-id="2716" xmlns:xlink="http://www.w3.org/1999/xlink" width="200" height="200"><path d="M0 0h1024v1024H0z" fill="#FF0033" fill-opacity="0" p-id="2717"></path><path d="M240.448 168l2.346667 2.154667 289.92 289.941333 279.253333-279.253333a42.666667 42.666667 0 0 1 62.506667 58.026666l-2.133334 2.346667-279.296 279.210667 279.274667 279.253333a42.666667 42.666667 0 0 1-58.005333 62.528l-2.346667-2.176-279.253333-279.253333-289.92 289.962666a42.666667 42.666667 0 0 1-62.506667-58.005333l2.154667-2.346667 289.941333-289.962666-289.92-289.92a42.666667 42.666667 0 0 1 57.984-62.506667z" fill="#111111" p-id="2718"></path></svg>